<svg width="198" height="77" viewBox="0 0 198 77" fill="none" xmlns="http://www.w3.org/2000/svg">
<g clip-path="url(#clip0_4741_18270)">
<path d="M83.3363 60.9259L87.0245 56.5208C89.414 58.3987 92.0087 59.3882 94.7748 59.3882C96.5852 59.3882 97.541 58.7725 97.541 57.7493V57.6818C97.541 56.6586 96.7567 56.1469 93.4789 55.3598C88.3907 54.1988 84.4664 52.7651 84.4664 47.8822V47.8147C84.4664 43.3759 87.9831 40.1684 93.7178 40.1684C97.78 40.1684 100.957 41.2619 103.551 43.3422L100.24 48.0199C98.0554 46.4485 95.666 45.6642 93.5492 45.6642C91.944 45.6642 91.1597 46.3136 91.1597 47.1991V47.2665C91.1597 48.3601 91.9778 48.838 95.3258 49.5885C100.788 50.7833 104.203 52.5599 104.203 57.0296V57.0971C104.203 61.9801 100.347 64.8812 94.5415 64.8812C90.3079 64.8812 86.3133 63.5487 83.3447 60.9203L83.3363 60.9259Z" fill="white"/>
<path d="M114.301 40.4102H120.685L130.859 64.4792H123.758L122.051 60.1781H112.8L111.094 64.4792H104.164L114.304 40.4102H114.301ZM120.103 55.0225L117.441 48.2617L114.745 55.0225H120.106H120.103Z" fill="white"/>
<path d="M127.033 40.5788H134.406L139.835 55.7028L145.297 40.5788H152.535L142.84 64.6478H136.695L127.033 40.5788Z" fill="white"/>
<path d="M154.003 40.5788H173.223V46.1786H160.556V49.8331H172.028V55.0562H160.556V58.8456H173.391V64.4792H154V40.5817L154.003 40.5788Z" fill="white"/>
<path d="M175.955 40.5788H187.256C190.91 40.5788 193.435 41.5346 195.04 43.1398C196.44 44.5397 197.157 46.3501 197.157 48.7059V48.7733C197.157 52.4615 195.211 54.8847 192.24 56.1469L197.941 64.4764H190.328L185.516 57.2377H182.581V64.4764H175.958V40.5788H175.955ZM186.98 52.0511C189.198 52.0511 190.531 50.9576 190.531 49.2175V49.15C190.531 47.2384 189.131 46.2826 186.947 46.2826H182.578V52.0511H186.983H186.98Z" fill="white"/>
<path d="M85.1439 11.0169H95.4186C101.429 11.0169 105.319 14.1232 105.319 19.38V19.4475C105.319 25.1147 100.985 28.0861 95.0784 28.0861H91.7669V34.9144H85.1439V11.0169ZM94.9435 22.8996C97.2655 22.8996 98.7329 21.6374 98.7329 19.7595V19.692C98.7329 17.6427 97.2655 16.5857 94.9098 16.5857H91.7697V22.9024H94.9435V22.8996Z" fill="white"/>
<path d="M107.268 11.0169H113.891V29.1122H125.464V34.9172H107.268V11.0169Z" fill="white"/>
<path d="M135.739 10.8482H142.123L152.296 34.9172H145.195L143.489 30.6161H134.238L132.531 34.9172H125.602L135.742 10.8482H135.739ZM141.541 25.4577L138.879 18.6969L136.183 25.4577H141.544H141.541Z" fill="white"/>
<path d="M153.764 11.0169H159.943L169.776 23.6473V11.0169H176.332V34.9144H170.563L160.322 21.806V34.9144H153.767V11.0169H153.764Z" fill="white"/>
<path d="M53.5916 0H22.5735C10.1065 0 0 10.1065 0 22.5735V53.5916C0 66.0586 10.1065 76.1651 22.5735 76.1651H53.5916C66.0586 76.1651 76.1651 66.0586 76.1651 53.5916V22.5735C76.1651 10.1065 66.0586 0 53.5916 0Z" fill="#847EF2"/>
<path d="M20.4005 45.3381H5.06848C7.91336 58.3368 18.2359 68.5385 31.3021 71.2006V55.9502C26.3657 54.0751 22.4076 50.2126 20.4033 45.3381H20.4005Z" fill="white"/>
<path d="M30.1242 20.7069V5.22873C17.3054 8.3238 7.33988 18.7222 4.87451 31.7715H20.0434C21.7639 26.8577 25.4324 22.8602 30.1242 20.7069Z" fill="white"/>
<path d="M56.1216 31.7715H71.2906C68.8252 18.7222 58.8597 8.3238 46.0409 5.22873V20.7069C50.7327 22.8602 54.4012 26.8577 56.1216 31.7715Z" fill="white"/>
<path d="M44.8658 55.9502V71.2006C57.932 68.5385 68.2545 58.3368 71.0994 45.3381H55.7646C53.7631 50.2126 49.805 54.0751 44.8658 55.9502Z" fill="white"/>
<path d="M38.0825 20.7041L44.4582 24.5525V4.88577C42.392 4.49221 40.2612 4.28137 38.0825 4.28137C35.9039 4.28137 33.7702 4.4894 31.7068 4.88577V24.5497L38.0825 20.7013V20.7041Z" fill="#60E785"/>
<path d="M19.5684 33.3542H4.61589C4.39944 34.9003 4.28418 36.4774 4.28418 38.0825C4.28418 40.0166 4.45004 41.9113 4.75926 43.7554H19.8214C19.2676 41.9675 18.9724 40.07 18.9724 38.1022C18.9724 36.4633 19.1776 34.8722 19.5655 33.3542H19.5684Z" fill="white"/>
<path d="M32.882 56.4983V71.4845C34.5771 71.746 36.3144 71.8837 38.0826 71.8837C39.8508 71.8837 41.5881 71.746 43.2832 71.4845V56.4983C41.6302 56.965 39.8873 57.2152 38.0854 57.2152C36.2834 57.2152 34.5377 56.965 32.8848 56.4983H32.882Z" fill="white"/>
<path d="M71.8809 38.0825C71.8809 36.4774 71.7656 34.9003 71.5492 33.3542H56.5995C56.9874 34.8722 57.1927 36.4633 57.1927 38.1022C57.1927 40.07 56.8947 41.9675 56.3437 43.7554H71.403C71.715 41.9113 71.8781 40.0166 71.8781 38.0825H71.8809Z" fill="white"/>
</g>
<defs>
<clipPath id="clip0_4741_18270">
<rect width="197.941" height="76.1651" fill="white"/>
</clipPath>
</defs>
</svg>
